<svg width="1440" height="900" viewBox="0 0 1440 900" fill="none" xmlns="http://www.w3.org/2000/svg">
<g clip-path="url(#clip0_1_46)">
<rect width="1440" height="900" fill="#0F172A"/>
<g filter="url(#filter0_f_1_46)">
<path d="M1306.75 819.993C1399.23 687 1350.76 558.443 1450.75 430.993C1652.62 173.663 1711.59 1071.18 1450.75 1268.49C1253.44 1417.74 804.998 1515.59 817.246 1268.49C826.234 1087.16 1046.59 1099.58 1173.25 969.493C1227.85 913.411 1262.06 884.255 1306.75 819.993Z" fill="#00DD81"/>
</g>
<g filter="url(#filter1_f_1_46)">
<path d="M60.1924 766.429C26.4919 654.855 136.336 567.281 74.7443 468.331C-31.3302 297.919 -232.942 631.371 -299.384 820.785C-427.68 1186.53 180.14 1874.58 381.181 1543.2C466.081 1403.26 516.705 1268.59 433.908 1127.4C373.8 1024.89 259.642 1048.14 179.623 960.288C119.744 894.551 85.9032 851.551 60.1924 766.429Z" fill="#0038FF"/>
</g>
<g filter="url(#filter2_f_1_46)">
<path d="M117.744 820.911C13.4225 768.933 25.0009 628.93 -89.2563 605.911C-286.032 566.266 -181.566 941.666 -89.2563 1119.91C88.9884 1464.09 1006.59 1493.47 903.244 1119.91C859.599 962.154 796.292 832.964 636.744 796.411C520.916 769.874 459.556 868.904 340.744 866.911C251.836 865.419 197.332 860.565 117.744 820.911Z" fill="#FF00F5"/>
</g>
<g filter="url(#filter3_f_1_46)">
<ellipse cx="798" cy="957.5" rx="492" ry="326.5" fill="#FF4545"/>
</g>
<g filter="url(#filter4_f_1_46)">
<ellipse cx="817" cy="1059" rx="378" ry="251" fill="#FF50D4"/>
</g>
<g filter="url(#filter5_f_1_46)">
<circle cx="1290.5" cy="957.5" r="176.5" fill="#FFF181"/>
</g>
</g>
<defs>
<filter id="filter0_f_1_46" x="467" y="35" width="1507.96" height="1734.32" filterUnits="userSpaceOnUse" color-interpolation-filters="sRGB">
<feFlood flood-opacity="0" result="BackgroundImageFix"/>
<feBlend mode="normal" in="SourceGraphic" in2="BackgroundImageFix" result="shape"/>
<feGaussianBlur stdDeviation="175" result="effect1_foregroundBlur_1_46"/>
</filter>
<filter id="filter1_f_1_46" x="-667" y="71.31" width="1493.08" height="1909.63" filterUnits="userSpaceOnUse" color-interpolation-filters="sRGB">
<feFlood flood-opacity="0" result="BackgroundImageFix"/>
<feBlend mode="normal" in="SourceGraphic" in2="BackgroundImageFix" result="shape"/>
<feGaussianBlur stdDeviation="175" result="effect1_foregroundBlur_1_46"/>
</filter>
<filter id="filter2_f_1_46" x="-551" y="253" width="1812.33" height="1486.18" filterUnits="userSpaceOnUse" color-interpolation-filters="sRGB">
<feFlood flood-opacity="0" result="BackgroundImageFix"/>
<feBlend mode="normal" in="SourceGraphic" in2="BackgroundImageFix" result="shape"/>
<feGaussianBlur stdDeviation="175" result="effect1_foregroundBlur_1_46"/>
</filter>
<filter id="filter3_f_1_46" x="-44" y="281" width="1684" height="1353" filterUnits="userSpaceOnUse" color-interpolation-filters="sRGB">
<feFlood flood-opacity="0" result="BackgroundImageFix"/>
<feBlend mode="normal" in="SourceGraphic" in2="BackgroundImageFix" result="shape"/>
<feGaussianBlur stdDeviation="175" result="effect1_foregroundBlur_1_46"/>
</filter>
<filter id="filter4_f_1_46" x="289" y="658" width="1056" height="802" filterUnits="userSpaceOnUse" color-interpolation-filters="sRGB">
<feFlood flood-opacity="0" result="BackgroundImageFix"/>
<feBlend mode="normal" in="SourceGraphic" in2="BackgroundImageFix" result="shape"/>
<feGaussianBlur stdDeviation="75" result="effect1_foregroundBlur_1_46"/>
</filter>
<filter id="filter5_f_1_46" x="864" y="531" width="853" height="853" filterUnits="userSpaceOnUse" color-interpolation-filters="sRGB">
<feFlood flood-opacity="0" result="BackgroundImageFix"/>
<feBlend mode="normal" in="SourceGraphic" in2="BackgroundImageFix" result="shape"/>
<feGaussianBlur stdDeviation="125" result="effect1_foregroundBlur_1_46"/>
</filter>
<clipPath id="clip0_1_46">
<rect width="1440" height="900" fill="white"/>
</clipPath>
</defs>
</svg>
