<svg width="72" height="72" viewBox="0 0 72 72" fill="none" xmlns="http://www.w3.org/2000/svg">
<g filter="url(#filter0_d_121_4089)">
<g clip-path="url(#clip0_121_4089)">
<rect x="6" y="3" width="60" height="60" rx="7" fill="#FF8A00"/>
<rect x="6" y="3" width="60" height="60" rx="7" fill="url(#paint0_linear_121_4089)" fill-opacity="0.24"/>
<rect x="6" y="3" width="60" height="60" rx="7" fill="url(#paint1_linear_121_4089)" fill-opacity="0.26"/>
<rect x="6" y="3" width="60" height="60" rx="7" fill="url(#paint2_linear_121_4089)" fill-opacity="0.27"/>
<rect x="6" y="3" width="60" height="60" rx="7" fill="url(#paint3_linear_121_4089)" fill-opacity="0.08"/>
<mask id="mask0_121_4089" style="mask-type:alpha" maskUnits="userSpaceOnUse" x="6" y="35" width="60" height="28">
<path fill-rule="evenodd" clip-rule="evenodd" d="M16 35H6V63H66V35H55.9048V35.58C55.9048 44.72 54.0198 53.899 43.8213 56.5109C42.2074 56.9242 40.3012 56.9883 36.95 56.9982V57H36.95H34.9548V56.9982C31.6036 56.9883 29.6974 56.9242 28.0835 56.5109C17.885 53.899 16 44.72 16 35.58V35Z" fill="url(#paint4_linear_121_4089)"/>
<path fill-rule="evenodd" clip-rule="evenodd" d="M16 35H6V63H66V35H55.9048V35.58C55.9048 44.72 54.0198 53.899 43.8213 56.5109C42.2074 56.9242 40.3012 56.9883 36.95 56.9982V57H36.95H34.9548V56.9982C31.6036 56.9883 29.6974 56.9242 28.0835 56.5109C17.885 53.899 16 44.72 16 35.58V35Z" fill="#333333" fill-opacity="0.21"/>
</mask>
<g mask="url(#mask0_121_4089)">
<path opacity="0.8" d="M66 63H50V41H66V63Z" fill="url(#paint5_linear_121_4089)"/>
<rect opacity="0.8" x="22" y="35" width="28" height="28" fill="black"/>
<path opacity="0.8" d="M6 63H22V41H6V63Z" fill="url(#paint6_linear_121_4089)"/>
<rect x="6" y="51" width="60" height="12" fill="url(#paint7_linear_121_4089)"/>
</g>
<g opacity="0.8">
<mask id="mask1_121_4089" style="mask-type:alpha" maskUnits="userSpaceOnUse" x="6" y="3" width="60" height="30">
<path fill-rule="evenodd" clip-rule="evenodd" d="M66 3H6V33H16V27.42C16 18.28 17.8895 9.10098 28.1123 6.48909C29.7301 6.07575 31.6408 6.01173 35 6.00182V6C35.3459 6 35.679 6 36 6.0002V6H37H38V6.00698C40.7525 6.02878 42.4377 6.11863 43.8877 6.48909C54.1105 9.10098 56 18.28 56 27.42V33H66V3Z" fill="#333333"/>
</mask>
<g mask="url(#mask1_121_4089)">
<path d="M66 3H50V25H66V3Z" fill="url(#paint8_linear_121_4089)"/>
<rect x="22" y="3" width="28" height="30" fill="url(#paint9_linear_121_4089)"/>
<path d="M6 3H22V25H6V3Z" fill="url(#paint10_linear_121_4089)" fill-opacity="0.5"/>
</g>
</g>
</g>
<mask id="path-11-inside-1_121_4089" fill="white">
<path fill-rule="evenodd" clip-rule="evenodd" d="M16 27.42C16 18.28 17.8895 9.10098 28.1123 6.48909C29.7301 6.07575 31.6408 6.01173 35 6.00182V6H37V6.00182C40.3592 6.01173 42.2699 6.07575 43.8877 6.48909C54.1105 9.10098 56 18.28 56 27.42V35.58C56 44.72 54.1105 53.899 43.8877 56.5109C42.2699 56.9242 40.3592 56.9883 37 56.9982V57H35V56.9982C31.6408 56.9883 29.7301 56.9242 28.1123 56.5109C17.8895 53.899 16 44.72 16 35.58V27.42Z"/>
</mask>
<path fill-rule="evenodd" clip-rule="evenodd" d="M16 27.42C16 18.28 17.8895 9.10098 28.1123 6.48909C29.7301 6.07575 31.6408 6.01173 35 6.00182V6H37V6.00182C40.3592 6.01173 42.2699 6.07575 43.8877 6.48909C54.1105 9.10098 56 18.28 56 27.42V35.58C56 44.72 54.1105 53.899 43.8877 56.5109C42.2699 56.9242 40.3592 56.9883 37 56.9982V57H35V56.9982C31.6408 56.9883 29.7301 56.9242 28.1123 56.5109C17.8895 53.899 16 44.72 16 35.58V27.42Z" fill="#FF8A00"/>
<path fill-rule="evenodd" clip-rule="evenodd" d="M16 27.42C16 18.28 17.8895 9.10098 28.1123 6.48909C29.7301 6.07575 31.6408 6.01173 35 6.00182V6H37V6.00182C40.3592 6.01173 42.2699 6.07575 43.8877 6.48909C54.1105 9.10098 56 18.28 56 27.42V35.58C56 44.72 54.1105 53.899 43.8877 56.5109C42.2699 56.9242 40.3592 56.9883 37 56.9982V57H35V56.9982C31.6408 56.9883 29.7301 56.9242 28.1123 56.5109C17.8895 53.899 16 44.72 16 35.58V27.42Z" fill="url(#paint11_linear_121_4089)" fill-opacity="0.31"/>
<path d="M28.1123 6.48909L27.8648 5.52021L27.8648 5.52021L28.1123 6.48909ZM35 6.00182L35.003 7.00181L36 6.99887V6.00182H35ZM35 6V5H34V6H35ZM37 6H38V5H37V6ZM37 6.00182H36V6.99887L36.997 7.00181L37 6.00182ZM43.8877 6.48909L43.6401 7.45797L43.6401 7.45797L43.8877 6.48909ZM43.8877 56.5109L43.6401 55.542L43.6401 55.542L43.8877 56.5109ZM37 56.9982L36.997 55.9982L36 56.0011V56.9982H37ZM37 57V58H38V57H37ZM35 57H34V58H35V57ZM35 56.9982H36V56.0011L35.003 55.9982L35 56.9982ZM28.1123 56.5109L28.3599 55.542L28.3599 55.542L28.1123 56.5109ZM27.8648 5.52021C22.4471 6.9044 19.1857 10.0639 17.3159 14.0849C15.4724 18.0491 15 22.8057 15 27.42H17C17 22.8943 17.4724 18.4914 19.1294 14.9282C20.76 11.4216 23.5547 8.68567 28.3599 7.45797L27.8648 5.52021ZM34.997 5.00182C31.6634 5.01166 29.6243 5.07067 27.8648 5.52021L28.3599 7.45797C29.8359 7.08084 31.6183 7.0118 35.003 7.00181L34.997 5.00182ZM36 6.00182V6H34V6.00182H36ZM35 7H37V5H35V7ZM36 6V6.00182H38V6H36ZM44.1352 5.52021C42.3757 5.07067 40.3366 5.01166 37.003 5.00182L36.997 7.00181C40.3817 7.0118 42.1641 7.08084 43.6401 7.45797L44.1352 5.52021ZM57 27.42C57 22.8057 56.5276 18.0491 54.6841 14.0849C52.8143 10.0639 49.5529 6.9044 44.1352 5.52021L43.6401 7.45797C48.4453 8.68567 51.24 11.4216 52.8706 14.9282C54.5276 18.4914 55 22.8943 55 27.42H57ZM57 35.58V27.42H55V35.58H57ZM44.1352 57.4798C49.5529 56.0956 52.8143 52.9361 54.6841 48.9151C56.5276 44.9509 57 40.1943 57 35.58H55C55 40.1057 54.5276 44.5086 52.8706 48.0718C51.24 51.5784 48.4453 54.3143 43.6401 55.542L44.1352 57.4798ZM37.003 57.9982C40.3366 57.9883 42.3757 57.9293 44.1352 57.4798L43.6401 55.542C42.1641 55.9192 40.3817 55.9882 36.997 55.9982L37.003 57.9982ZM36 56.9982V57H38V56.9982H36ZM37 56H35V58H37V56ZM36 57V56.9982H34V57H36ZM27.8648 57.4798C29.6243 57.9293 31.6634 57.9883 34.997 57.9982L35.003 55.9982C31.6183 55.9882 29.8359 55.9192 28.3599 55.542L27.8648 57.4798ZM15 35.58C15 40.1943 15.4724 44.9509 17.3159 48.9151C19.1857 52.9361 22.4471 56.0956 27.8648 57.4798L28.3599 55.542C23.5547 54.3143 20.76 51.5784 19.1294 48.0718C17.4724 44.5086 17 40.1057 17 35.58H15ZM15 27.42V35.58H17V27.42H15Z" fill="url(#paint12_angular_121_4089)" mask="url(#path-11-inside-1_121_4089)"/>
<mask id="path-13-outside-2_121_4089" maskUnits="userSpaceOnUse" x="15" y="5" width="42" height="53" fill="black">
<rect fill="white" x="15" y="5" width="42" height="53"/>
<path fill-rule="evenodd" clip-rule="evenodd" d="M16 27.42C16 18.28 17.8895 9.10098 28.1123 6.48909C29.7301 6.07575 31.6408 6.01173 35 6.00182V6H37V6.00182C40.3592 6.01173 42.2699 6.07575 43.8877 6.48909C54.1105 9.10098 56 18.28 56 27.42V35.58C56 44.72 54.1105 53.899 43.8877 56.5109C42.2699 56.9242 40.3592 56.9883 37 56.9982V57H35V56.9982C31.6408 56.9883 29.7301 56.9242 28.1123 56.5109C17.8895 53.899 16 44.72 16 35.58V27.42Z"/>
</mask>
<path d="M28.1123 6.48909L27.8648 5.52021L27.8648 5.52021L28.1123 6.48909ZM35 6.00182L35.003 7.00181L36 6.99887V6.00182H35ZM35 6V5H34V6H35ZM37 6H38V5H37V6ZM37 6.00182H36V6.99887L36.997 7.00181L37 6.00182ZM43.8877 6.48909L43.6401 7.45797L43.6401 7.45797L43.8877 6.48909ZM43.8877 56.5109L43.6401 55.542L43.6401 55.542L43.8877 56.5109ZM37 56.9982L36.997 55.9982L36 56.0011V56.9982H37ZM37 57V58H38V57H37ZM35 57H34V58H35V57ZM35 56.9982H36V56.0011L35.003 55.9982L35 56.9982ZM28.1123 56.5109L28.3599 55.542L28.3599 55.542L28.1123 56.5109ZM27.8648 5.52021C22.4471 6.9044 19.1857 10.0639 17.3159 14.0849C15.4724 18.0491 15 22.8057 15 27.42H17C17 22.8943 17.4724 18.4914 19.1294 14.9282C20.76 11.4216 23.5547 8.68567 28.3599 7.45797L27.8648 5.52021ZM34.997 5.00182C31.6634 5.01166 29.6243 5.07067 27.8648 5.52021L28.3599 7.45797C29.8359 7.08084 31.6183 7.0118 35.003 7.00181L34.997 5.00182ZM36 6.00182V6H34V6.00182H36ZM35 7H37V5H35V7ZM36 6V6.00182H38V6H36ZM44.1352 5.52021C42.3757 5.07067 40.3366 5.01166 37.003 5.00182L36.997 7.00181C40.3817 7.0118 42.1641 7.08084 43.6401 7.45797L44.1352 5.52021ZM57 27.42C57 22.8057 56.5276 18.0491 54.6841 14.0849C52.8143 10.0639 49.5529 6.9044 44.1352 5.52021L43.6401 7.45797C48.4453 8.68567 51.24 11.4216 52.8706 14.9282C54.5276 18.4914 55 22.8943 55 27.42H57ZM57 35.58V27.42H55V35.58H57ZM44.1352 57.4798C49.5529 56.0956 52.8143 52.9361 54.6841 48.9151C56.5276 44.9509 57 40.1943 57 35.58H55C55 40.1057 54.5276 44.5086 52.8706 48.0718C51.24 51.5784 48.4453 54.3143 43.6401 55.542L44.1352 57.4798ZM37.003 57.9982C40.3366 57.9883 42.3757 57.9293 44.1352 57.4798L43.6401 55.542C42.1641 55.9192 40.3817 55.9882 36.997 55.9982L37.003 57.9982ZM36 56.9982V57H38V56.9982H36ZM37 56H35V58H37V56ZM36 57V56.9982H34V57H36ZM27.8648 57.4798C29.6243 57.9293 31.6634 57.9883 34.997 57.9982L35.003 55.9982C31.6183 55.9882 29.8359 55.9192 28.3599 55.542L27.8648 57.4798ZM15 35.58C15 40.1943 15.4724 44.9509 17.3159 48.9151C19.1857 52.9361 22.4471 56.0956 27.8648 57.4798L28.3599 55.542C23.5547 54.3143 20.76 51.5784 19.1294 48.0718C17.4724 44.5086 17 40.1057 17 35.58H15ZM15 27.42V35.58H17V27.42H15Z" fill="url(#paint13_angular_121_4089)" mask="url(#path-13-outside-2_121_4089)"/>
</g>
<defs>
<filter id="filter0_d_121_4089" x="-2" y="-2" width="76" height="76" filterUnits="userSpaceOnUse" color-interpolation-filters="sRGB">
<feFlood flood-opacity="0" result="BackgroundImageFix"/>
<feColorMatrix in="SourceAlpha" type="matrix" values="0 0 0 0 0 0 0 0 0 0 0 0 0 0 0 0 0 0 127 0" result="hardAlpha"/>
<feOffset dy="3"/>
<feGaussianBlur stdDeviation="3"/>
<feColorMatrix type="matrix" values="0 0 0 0 0 0 0 0 0 0 0 0 0 0 0 0 0 0 0.4 0"/>
<feBlend mode="normal" in2="BackgroundImageFix" result="effect1_dropShadow_121_4089"/>
<feBlend mode="normal" in="SourceGraphic" in2="effect1_dropShadow_121_4089" result="shape"/>
</filter>
<linearGradient id="paint0_linear_121_4089" x1="36" y1="3" x2="36" y2="63" gradientUnits="userSpaceOnUse">
<stop stop-color="#FFFF00"/>
<stop offset="1" stop-color="#BE3700"/>
</linearGradient>
<linearGradient id="paint1_linear_121_4089" x1="36" y1="3" x2="36" y2="63" gradientUnits="userSpaceOnUse">
<stop stop-color="#FF9B00"/>
<stop offset="0.2875" stop-color="#311E00"/>
<stop offset="0.6875" stop-color="#FF9B00"/>
<stop offset="1" stop-color="#311E00"/>
</linearGradient>
<linearGradient id="paint2_linear_121_4089" x1="6" y1="33" x2="66" y2="33" gradientUnits="userSpaceOnUse">
<stop stop-color="#FF4500"/>
<stop offset="0.2" stop-color="#392200" stop-opacity="0.23"/>
<stop offset="0.291667" stop-color="#FF9800" stop-opacity="0"/>
</linearGradient>
<linearGradient id="paint3_linear_121_4089" x1="6" y1="33" x2="66" y2="33" gradientUnits="userSpaceOnUse">
<stop offset="0.588542" stop-color="#733900" stop-opacity="0"/>
<stop offset="0.84375" stop-color="#432100" stop-opacity="0.84"/>
<stop offset="1" stop-color="#FFC700"/>
</linearGradient>
<linearGradient id="paint4_linear_121_4089" x1="36" y1="35" x2="36" y2="63" gradientUnits="userSpaceOnUse">
<stop stop-opacity="0"/>
<stop offset="1"/>
</linearGradient>
<linearGradient id="paint5_linear_121_4089" x1="55.5" y1="57" x2="64.265" y2="45.5875" gradientUnits="userSpaceOnUse">
<stop offset="0.0885417"/>
<stop offset="0.78125" stop-opacity="0"/>
</linearGradient>
<linearGradient id="paint6_linear_121_4089" x1="17.5" y1="54.5" x2="7.87297" y2="45.1453" gradientUnits="userSpaceOnUse">
<stop offset="0.0885417"/>
<stop offset="0.75" stop-opacity="0"/>
</linearGradient>
<linearGradient id="paint7_linear_121_4089" x1="36" y1="51" x2="36" y2="63" gradientUnits="userSpaceOnUse">
<stop stop-color="#231600" stop-opacity="0"/>
<stop offset="1" stop-color="#975D00"/>
</linearGradient>
<linearGradient id="paint8_linear_121_4089" x1="54" y1="9.5" x2="61.6693" y2="19.4859" gradientUnits="userSpaceOnUse">
<stop stop-color="#FFFF6B"/>
<stop offset="1" stop-color="#FFFF71" stop-opacity="0"/>
</linearGradient>
<linearGradient id="paint9_linear_121_4089" x1="22" y1="8" x2="50" y2="8" gradientUnits="userSpaceOnUse">
<stop offset="0.642857" stop-color="#FFFF00" stop-opacity="0.5"/>
<stop offset="1" stop-color="#FFFF00"/>
</linearGradient>
<linearGradient id="paint10_linear_121_4089" x1="18" y1="9.5" x2="10.3307" y2="19.4859" gradientUnits="userSpaceOnUse">
<stop stop-color="#FFFF00"/>
<stop offset="1" stop-color="#FFFF00" stop-opacity="0"/>
</linearGradient>
<linearGradient id="paint11_linear_121_4089" x1="16" y1="31.5" x2="56" y2="31.5" gradientUnits="userSpaceOnUse">
<stop stop-color="#FFFF00"/>
<stop offset="0.71875" stop-color="#646400" stop-opacity="0.44"/>
</linearGradient>
<radialGradient id="paint12_angular_121_4089" cx="0" cy="0" r="1" gradientUnits="userSpaceOnUse" gradientTransform="translate(36 31.5) rotate(90) scale(25.5 20)">
<stop offset="0.0959967" stop-color="#FFC700" stop-opacity="0.6"/>
<stop offset="0.252377" stop-color="#FFC700"/>
<stop offset="0.399789" stop-color="#ED8A00" stop-opacity="0"/>
<stop offset="0.538554" stop-color="#463100" stop-opacity="0"/>
<stop offset="0.710484" stop-color="#FFFF00"/>
<stop offset="0.870179" stop-color="#FFFF00"/>
<stop offset="0.916804" stop-color="#FFFF00" stop-opacity="0"/>
</radialGradient>
<radialGradient id="paint13_angular_121_4089" cx="0" cy="0" r="1" gradientUnits="userSpaceOnUse" gradientTransform="translate(36 31.5) rotate(-90) scale(25.5 20)">
<stop offset="0.0989583" stop-color="#FFFF00"/>
<stop offset="0.381495" stop-color="#FFFF00"/>
<stop offset="0.5" stop-color="#463100" stop-opacity="0"/>
<stop offset="0.625" stop-color="#463100" stop-opacity="0.53"/>
<stop offset="0.852951" stop-color="#463100" stop-opacity="0"/>
<stop offset="0.92104" stop-color="#FFFF00" stop-opacity="0"/>
</radialGradient>
<clipPath id="clip0_121_4089">
<rect x="6" y="3" width="60" height="60" rx="7" fill="white"/>
</clipPath>
</defs>
</svg>
