<svg width="478" height="419" viewBox="0 0 478 419" fill="none" xmlns="http://www.w3.org/2000/svg">
<rect x="0.5" y="0.5" width="477" height="417.25" rx="4.5" fill="#484459" stroke="#9A95B4"/>
<rect width="221" height="10" rx="3" transform="matrix(-1 0 0 1 363 57)" fill="url(#paint0_linear_284_1591)" fill-opacity="0.73"/>
<rect width="194" height="10" rx="3" transform="matrix(-1 0 0 1 336 102)" fill="url(#paint1_linear_284_1591)" fill-opacity="0.73"/>
<rect width="216" height="10" rx="3" transform="matrix(-1 0 0 1 376 219)" fill="url(#paint2_linear_284_1591)" fill-opacity="0.73"/>
<rect width="57" height="10" rx="3" transform="matrix(-1 0 0 1 217 323)" fill="url(#paint3_linear_284_1591)" fill-opacity="0.73"/>
<rect width="194" height="10" rx="3" transform="matrix(-1 0 0 1 354 157)" fill="url(#paint4_linear_284_1591)" fill-opacity="0.73"/>
<rect width="59" height="10" rx="3" transform="matrix(-1 0 0 1 438 120)" fill="url(#paint5_linear_284_1591)" fill-opacity="0.73"/>
<rect width="194" height="10" rx="3" transform="matrix(-1 0 0 1 354 172)" fill="url(#paint6_linear_284_1591)" fill-opacity="0.73"/>
<rect width="219" height="10" rx="3" transform="matrix(-1 0 0 1 361 276)" fill="url(#paint7_linear_284_1591)" fill-opacity="0.73"/>
<rect width="194" height="10" rx="3" transform="matrix(-1 0 0 1 336 366)" fill="url(#paint8_linear_284_1591)" fill-opacity="0.73"/>
<rect width="291" height="10" rx="3" transform="matrix(-1 0 0 1 455 72)" fill="url(#paint9_linear_284_1591)" fill-opacity="0.73"/>
<rect width="102" height="10" rx="3" transform="matrix(-1 0 0 1 266 87)" fill="url(#paint10_linear_284_1591)" fill-opacity="0.73"/>
<rect width="151" height="10" rx="3" transform="matrix(-1 0 0 1 311 235)" fill="url(#paint11_linear_284_1591)" fill-opacity="0.73"/>
<rect width="278" height="10" rx="3" transform="matrix(-1 0 0 1 438 338)" fill="url(#paint12_linear_284_1591)" fill-opacity="0.73"/>
<rect width="147" height="10" rx="3" transform="matrix(-1 0 0 1 307 352)" fill="url(#paint13_linear_284_1591)" fill-opacity="0.73"/>
<rect width="159" height="10" rx="3" transform="matrix(-1 0 0 1 301 120)" fill="url(#paint14_linear_284_1591)" fill-opacity="0.73"/>
<rect width="194" height="10" rx="3" transform="matrix(-1 0 0 1 336 188)" fill="url(#paint15_linear_284_1591)" fill-opacity="0.73"/>
<rect width="135" height="10" rx="3" transform="matrix(-1 0 0 1 295 292)" fill="url(#paint16_linear_284_1591)" fill-opacity="0.73"/>
<rect width="194" height="10" rx="3" transform="matrix(-1 0 0 1 336 381)" fill="url(#paint17_linear_284_1591)" fill-opacity="0.73"/>
<rect width="194" height="10" rx="3" transform="matrix(-1 0 0 1 354 139)" fill="url(#paint18_linear_284_1591)" fill-opacity="0.73"/>
<rect width="52" height="10" rx="3" transform="matrix(-1 0 0 1 366 120)" fill="url(#paint19_linear_284_1591)" fill-opacity="0.73"/>
<rect width="268" height="10" rx="3" transform="matrix(-1 0 0 1 410 203)" fill="url(#paint20_linear_284_1591)" fill-opacity="0.73"/>
<rect width="216" height="10" rx="3" transform="matrix(-1 0 0 1 376 307)" fill="url(#paint21_linear_284_1591)" fill-opacity="0.73"/>
<rect width="296" height="10" rx="3" transform="matrix(-1 0 0 1 438 250)" fill="url(#paint22_linear_284_1591)" fill-opacity="0.73"/>
<rect width="113" height="10" rx="3" transform="matrix(-1 0 0 1 255 262)" fill="url(#paint23_linear_284_1591)" fill-opacity="0.73"/>
<rect width="194" height="10" rx="3" transform="matrix(-1 0 0 1 354 397)" fill="url(#paint24_linear_284_1591)" fill-opacity="0.73"/>
<rect width="10" height="10" rx="5" transform="matrix(-1 0 0 1 132 57)" fill="#6B7280"/>
<rect width="10" height="10" rx="5" transform="matrix(-1 0 0 1 132 157)" fill="#6B7280"/>
<rect width="10" height="10" rx="5" transform="matrix(-1 0 0 1 132 235)" fill="#6B7280"/>
<rect width="10" height="10" rx="5" transform="matrix(-1 0 0 1 132 324)" fill="#6B7280"/>
<rect width="10" height="10" rx="5" transform="matrix(-1 0 0 1 132 102)" fill="#6B7280"/>
<rect width="10" height="10" rx="5" transform="matrix(-1 0 0 1 132 188)" fill="#6B7280"/>
<rect width="10" height="10" rx="5" transform="matrix(-1 0 0 1 132 277)" fill="#6B7280"/>
<rect width="10" height="10" rx="5" transform="matrix(-1 0 0 1 132 366)" fill="#6B7280"/>
<rect width="10" height="10" rx="5" transform="matrix(-1 0 0 1 132 72)" fill="#6B7280"/>
<rect width="10" height="10" rx="5" transform="matrix(-1 0 0 1 132 172)" fill="#6B7280"/>
<rect width="10" height="10" rx="5" transform="matrix(-1 0 0 1 132 250)" fill="#6B7280"/>
<rect width="10" height="10" rx="5" transform="matrix(-1 0 0 1 132 339)" fill="#6B7280"/>
<rect width="10" height="10" rx="5" transform="matrix(-1 0 0 1 132 120)" fill="#6B7280"/>
<rect width="10" height="10" rx="5" transform="matrix(-1 0 0 1 132 203)" fill="#6B7280"/>
<rect width="10" height="10" rx="5" transform="matrix(-1 0 0 1 132 292)" fill="#6B7280"/>
<rect width="10" height="10" rx="5" transform="matrix(-1 0 0 1 132 381)" fill="#6B7280"/>
<rect width="10" height="10" rx="5" transform="matrix(-1 0 0 1 132 139)" fill="#6B7280"/>
<rect width="10" height="10" rx="5" transform="matrix(-1 0 0 1 132 219)" fill="#6B7280"/>
<rect width="10" height="10" rx="5" transform="matrix(-1 0 0 1 132 308)" fill="#6B7280"/>
<rect width="10" height="10" rx="5" transform="matrix(-1 0 0 1 132 397)" fill="#6B7280"/>
<path d="M0 4C0 1.79086 1.79086 0 4 0H473C475.761 0 478 2.23858 478 5V39H0V4Z" fill="#6B6973"/>
<path d="M109 39L109 418L5 418C2.23857 418 -1.20998e-06 415.761 -1.08927e-06 413L1.52588e-05 39L109 39Z" fill="#393840"/>
<defs>
<linearGradient id="paint0_linear_284_1591" x1="0" y1="5" x2="221" y2="5" gradientUnits="userSpaceOnUse">
<stop stop-color="#009989"/>
<stop offset="1" stop-color="#95F9EF"/>
</linearGradient>
<linearGradient id="paint1_linear_284_1591" x1="0" y1="5" x2="194" y2="5" gradientUnits="userSpaceOnUse">
<stop stop-color="#009989"/>
<stop offset="1" stop-color="#95F9EF"/>
</linearGradient>
<linearGradient id="paint2_linear_284_1591" x1="0" y1="5" x2="216" y2="5" gradientUnits="userSpaceOnUse">
<stop stop-color="#009989"/>
<stop offset="1" stop-color="#95F9EF"/>
</linearGradient>
<linearGradient id="paint3_linear_284_1591" x1="0" y1="5" x2="57" y2="5" gradientUnits="userSpaceOnUse">
<stop stop-color="#009989"/>
<stop offset="1" stop-color="#95F9EF"/>
</linearGradient>
<linearGradient id="paint4_linear_284_1591" x1="0" y1="5" x2="194" y2="5" gradientUnits="userSpaceOnUse">
<stop stop-color="#1F2937"/>
<stop offset="1" stop-color="#647EA2"/>
</linearGradient>
<linearGradient id="paint5_linear_284_1591" x1="0" y1="5" x2="59" y2="5" gradientUnits="userSpaceOnUse">
<stop stop-color="#1F2937"/>
<stop offset="1" stop-color="#647EA2"/>
</linearGradient>
<linearGradient id="paint6_linear_284_1591" x1="0" y1="5" x2="194" y2="5" gradientUnits="userSpaceOnUse">
<stop stop-color="#1F2937"/>
<stop offset="1" stop-color="#647EA2"/>
</linearGradient>
<linearGradient id="paint7_linear_284_1591" x1="0" y1="5" x2="219" y2="5" gradientUnits="userSpaceOnUse">
<stop stop-color="#1F2937"/>
<stop offset="1" stop-color="#647EA2"/>
</linearGradient>
<linearGradient id="paint8_linear_284_1591" x1="0" y1="5" x2="194" y2="5" gradientUnits="userSpaceOnUse">
<stop stop-color="#1F2937"/>
<stop offset="1" stop-color="#647EA2"/>
</linearGradient>
<linearGradient id="paint9_linear_284_1591" x1="0" y1="5" x2="291" y2="5" gradientUnits="userSpaceOnUse">
<stop stop-color="#F85931"/>
<stop offset="1" stop-color="#EEBBAE"/>
</linearGradient>
<linearGradient id="paint10_linear_284_1591" x1="0" y1="5" x2="102" y2="5" gradientUnits="userSpaceOnUse">
<stop stop-color="#F85931"/>
<stop offset="1" stop-color="#EEBBAE"/>
</linearGradient>
<linearGradient id="paint11_linear_284_1591" x1="0" y1="5" x2="151" y2="5" gradientUnits="userSpaceOnUse">
<stop stop-color="#F85931"/>
<stop offset="1" stop-color="#EEBBAE"/>
</linearGradient>
<linearGradient id="paint12_linear_284_1591" x1="0" y1="5" x2="278" y2="5" gradientUnits="userSpaceOnUse">
<stop stop-color="#F85931"/>
<stop offset="1" stop-color="#EEBBAE"/>
</linearGradient>
<linearGradient id="paint13_linear_284_1591" x1="0" y1="5" x2="147" y2="5" gradientUnits="userSpaceOnUse">
<stop stop-color="#F85931"/>
<stop offset="1" stop-color="#EEBBAE"/>
</linearGradient>
<linearGradient id="paint14_linear_284_1591" x1="0" y1="5" x2="159" y2="5" gradientUnits="userSpaceOnUse">
<stop stop-color="#500498"/>
<stop offset="1" stop-color="#C282FF"/>
</linearGradient>
<linearGradient id="paint15_linear_284_1591" x1="0" y1="5" x2="194" y2="5" gradientUnits="userSpaceOnUse">
<stop stop-color="#500498"/>
<stop offset="1" stop-color="#C282FF"/>
</linearGradient>
<linearGradient id="paint16_linear_284_1591" x1="0" y1="5" x2="135" y2="5" gradientUnits="userSpaceOnUse">
<stop stop-color="#500498"/>
<stop offset="1" stop-color="#C282FF"/>
</linearGradient>
<linearGradient id="paint17_linear_284_1591" x1="0" y1="5" x2="194" y2="5" gradientUnits="userSpaceOnUse">
<stop stop-color="#500498"/>
<stop offset="1" stop-color="#C282FF"/>
</linearGradient>
<linearGradient id="paint18_linear_284_1591" x1="0" y1="5" x2="194" y2="5" gradientUnits="userSpaceOnUse">
<stop offset="0.112" stop-color="#0078C2"/>
<stop offset="1" stop-color="#81CDFC"/>
</linearGradient>
<linearGradient id="paint19_linear_284_1591" x1="0" y1="5" x2="52" y2="5" gradientUnits="userSpaceOnUse">
<stop offset="0.112" stop-color="#0078C2"/>
<stop offset="1" stop-color="#81CDFC"/>
</linearGradient>
<linearGradient id="paint20_linear_284_1591" x1="0" y1="5" x2="268" y2="5" gradientUnits="userSpaceOnUse">
<stop offset="0.112" stop-color="#0078C2"/>
<stop offset="1" stop-color="#81CDFC"/>
</linearGradient>
<linearGradient id="paint21_linear_284_1591" x1="0" y1="5" x2="216" y2="5" gradientUnits="userSpaceOnUse">
<stop offset="0.112" stop-color="#0078C2"/>
<stop offset="1" stop-color="#81CDFC"/>
</linearGradient>
<linearGradient id="paint22_linear_284_1591" x1="0" y1="5" x2="296" y2="5" gradientUnits="userSpaceOnUse">
<stop offset="0.112" stop-color="#0078C2"/>
<stop offset="1" stop-color="#81CDFC"/>
</linearGradient>
<linearGradient id="paint23_linear_284_1591" x1="0" y1="5" x2="113" y2="5" gradientUnits="userSpaceOnUse">
<stop offset="0.112" stop-color="#0078C2"/>
<stop offset="1" stop-color="#81CDFC"/>
</linearGradient>
<linearGradient id="paint24_linear_284_1591" x1="0" y1="5" x2="194" y2="5" gradientUnits="userSpaceOnUse">
<stop offset="0.112" stop-color="#0078C2"/>
<stop offset="1" stop-color="#81CDFC"/>
</linearGradient>
</defs>
</svg>
