<svg width="760" height="851" viewBox="0 0 760 851" fill="none" xmlns="http://www.w3.org/2000/svg">
<g clip-path="url(#clip0_25_5)">
<mask id="mask0_25_5" style="mask-type:luminance" maskUnits="userSpaceOnUse" x="0" y="0" width="1127" height="851">
<path d="M0 0H1127V851H0V0Z" fill="white"/>
</mask>
<g mask="url(#mask0_25_5)">
<g opacity="0.2" filter="url(#filter0_f_25_5)">
<path d="M1522.02 -547.066L1556.8 -512.296L946.67 97.6901L521.02 502.781L911.893 62.9209L1522.02 -547.066Z" fill="url(#paint0_linear_25_5)"/>
</g>
<g opacity="0.32" filter="url(#filter1_f_25_5)">
<path d="M1232.1 -532.401L1266.88 -497.632L656.751 112.355L231.099 517.446L621.974 77.5859L1232.1 -532.401Z" fill="url(#paint1_linear_25_5)"/>
</g>
<g opacity="0.32" filter="url(#filter2_f_25_5)">
<path d="M1120.79 -681.64L1155.57 -646.871L545.442 -36.8837L119.792 368.207L510.665 -71.6531L1120.79 -681.64Z" fill="url(#paint2_linear_25_5)"/>
</g>
</g>
</g>
<defs>
<filter id="filter0_f_25_5" x="441.02" y="-627.066" width="1195.78" height="1209.85" filterUnits="userSpaceOnUse" color-interpolation-filters="sRGB">
<feFlood flood-opacity="0" result="BackgroundImageFix"/>
<feBlend mode="normal" in="SourceGraphic" in2="BackgroundImageFix" result="shape"/>
<feGaussianBlur stdDeviation="40" result="effect1_foregroundBlur_25_5"/>
</filter>
<filter id="filter1_f_25_5" x="151.1" y="-612.401" width="1195.78" height="1209.85" filterUnits="userSpaceOnUse" color-interpolation-filters="sRGB">
<feFlood flood-opacity="0" result="BackgroundImageFix"/>
<feBlend mode="normal" in="SourceGraphic" in2="BackgroundImageFix" result="shape"/>
<feGaussianBlur stdDeviation="40" result="effect1_foregroundBlur_25_5"/>
</filter>
<filter id="filter2_f_25_5" x="39.792" y="-761.64" width="1195.78" height="1209.85" filterUnits="userSpaceOnUse" color-interpolation-filters="sRGB">
<feFlood flood-opacity="0" result="BackgroundImageFix"/>
<feBlend mode="normal" in="SourceGraphic" in2="BackgroundImageFix" result="shape"/>
<feGaussianBlur stdDeviation="40" result="effect1_foregroundBlur_25_5"/>
</filter>
<linearGradient id="paint0_linear_25_5" x1="1539.41" y1="-529.682" x2="929.424" y2="80.4489" gradientUnits="userSpaceOnUse">
<stop stop-color="white"/>
<stop offset="1" stop-color="#D3D8DF"/>
</linearGradient>
<linearGradient id="paint1_linear_25_5" x1="1249.49" y1="-515.016" x2="639.505" y2="95.1139" gradientUnits="userSpaceOnUse">
<stop stop-color="white"/>
<stop offset="1" stop-color="#D3D8DF"/>
</linearGradient>
<linearGradient id="paint2_linear_25_5" x1="1138.18" y1="-664.255" x2="528.196" y2="-54.125" gradientUnits="userSpaceOnUse">
<stop stop-color="white"/>
<stop offset="1" stop-color="#D3D8DF"/>
</linearGradient>
<clipPath id="clip0_25_5">
<rect width="1127" height="851" fill="white" transform="matrix(-1 0 0 1 1127 0)"/>
</clipPath>
</defs>
</svg>
