<svg width="746" height="851" viewBox="0 0 746 851" fill="none" xmlns="http://www.w3.org/2000/svg">
<g clip-path="url(#clip0_25_16)">
<mask id="mask0_25_16" style="mask-type:luminance" maskUnits="userSpaceOnUse" x="-381" y="0" width="1127" height="851">
<path d="M746 0H-381V851H746V0Z" fill="white"/>
</mask>
<g mask="url(#mask0_25_16)">
<g opacity="0.2" filter="url(#filter0_f_25_16)">
<path d="M-776.022 -547.066L-810.8 -512.296L-200.67 97.6901L224.98 502.781L-165.893 62.9208L-776.022 -547.066Z" fill="url(#paint0_linear_25_16)"/>
</g>
<g opacity="0.32" filter="url(#filter1_f_25_16)">
<path d="M-486.103 -532.401L-520.881 -497.632L89.249 112.355L514.901 517.446L124.026 77.5859L-486.103 -532.401Z" fill="url(#paint1_linear_25_16)"/>
</g>
<g opacity="0.32" filter="url(#filter2_f_25_16)">
<path d="M-374.795 -681.64L-409.572 -646.871L200.558 -36.8837L626.208 368.207L235.335 -71.6531L-374.795 -681.64Z" fill="url(#paint2_linear_25_16)"/>
</g>
</g>
</g>
<defs>
<filter id="filter0_f_25_16" x="-890.8" y="-627.066" width="1195.78" height="1209.85" filterUnits="userSpaceOnUse" color-interpolation-filters="sRGB">
<feFlood flood-opacity="0" result="BackgroundImageFix"/>
<feBlend mode="normal" in="SourceGraphic" in2="BackgroundImageFix" result="shape"/>
<feGaussianBlur stdDeviation="40" result="effect1_foregroundBlur_25_16"/>
</filter>
<filter id="filter1_f_25_16" x="-600.881" y="-612.401" width="1195.78" height="1209.85" filterUnits="userSpaceOnUse" color-interpolation-filters="sRGB">
<feFlood flood-opacity="0" result="BackgroundImageFix"/>
<feBlend mode="normal" in="SourceGraphic" in2="BackgroundImageFix" result="shape"/>
<feGaussianBlur stdDeviation="40" result="effect1_foregroundBlur_25_16"/>
</filter>
<filter id="filter2_f_25_16" x="-489.572" y="-761.64" width="1195.78" height="1209.85" filterUnits="userSpaceOnUse" color-interpolation-filters="sRGB">
<feFlood flood-opacity="0" result="BackgroundImageFix"/>
<feBlend mode="normal" in="SourceGraphic" in2="BackgroundImageFix" result="shape"/>
<feGaussianBlur stdDeviation="40" result="effect1_foregroundBlur_25_16"/>
</filter>
<linearGradient id="paint0_linear_25_16" x1="-793.412" y1="-529.682" x2="-183.424" y2="80.4489" gradientUnits="userSpaceOnUse">
<stop stop-color="white"/>
<stop offset="1" stop-color="#D3D8DF"/>
</linearGradient>
<linearGradient id="paint1_linear_25_16" x1="-503.492" y1="-515.016" x2="106.495" y2="95.1139" gradientUnits="userSpaceOnUse">
<stop stop-color="white"/>
<stop offset="1" stop-color="#D3D8DF"/>
</linearGradient>
<linearGradient id="paint2_linear_25_16" x1="-392.184" y1="-664.255" x2="217.804" y2="-54.125" gradientUnits="userSpaceOnUse">
<stop stop-color="white"/>
<stop offset="1" stop-color="#D3D8DF"/>
</linearGradient>
<clipPath id="clip0_25_16">
<rect width="1127" height="851" fill="white" transform="translate(-381)"/>
</clipPath>
</defs>
</svg>
