<svg width="152" height="151" viewBox="0 0 152 151" fill="none" xmlns="http://www.w3.org/2000/svg">
<rect y="18" width="152" height="133" rx="13" fill="url(#paint0_linear_322_670)"/>
<path d="M34.268 3C35.0378 1.66667 36.9623 1.66667 37.7321 3L47.2583 19.5C48.0281 20.8333 47.0659 22.5 45.5263 22.5H26.4737C24.9341 22.5 23.9719 20.8333 24.7417 19.5L34.268 3Z" fill="url(#paint1_linear_322_670)"/>
<path d="M14 36C14 34.3431 15.3431 33 17 33H116V47H17C15.3431 47 14 45.6569 14 44V36Z" fill="url(#paint2_linear_322_670)" fill-opacity="0.73"/>
<path d="M14 88C14 86.3431 15.3431 85 17 85H116V99H17C15.3431 99 14 97.6569 14 96V88Z" fill="url(#paint3_linear_322_670)" fill-opacity="0.73"/>
<path d="M14 55C14 53.3431 15.3431 52 17 52H116V66H17C15.3431 66 14 64.6569 14 63V55Z" fill="url(#paint4_linear_322_670)" fill-opacity="0.73"/>
<path d="M14 107C14 105.343 15.3431 104 17 104H116V118H17C15.3431 118 14 116.657 14 115V107Z" fill="url(#paint5_linear_322_670)" fill-opacity="0.73"/>
<path d="M14 126C14 124.343 15.3431 123 17 123H116V137H17C15.3431 137 14 135.657 14 134V126Z" fill="url(#paint6_linear_322_670)" fill-opacity="0.73"/>
<path d="M121 33H136C137.657 33 139 34.3431 139 36V44C139 45.6569 137.657 47 136 47H121V33Z" fill="url(#paint7_linear_322_670)"/>
<path d="M121 85H136C137.657 85 139 86.3431 139 88V96C139 97.6569 137.657 99 136 99H121V85Z" fill="url(#paint8_linear_322_670)"/>
<path d="M121 52H136C137.657 52 139 53.3431 139 55V63C139 64.6569 137.657 66 136 66H121V52Z" fill="url(#paint9_linear_322_670)"/>
<path d="M121 104H136C137.657 104 139 105.343 139 107V115C139 116.657 137.657 118 136 118H121V104Z" fill="url(#paint10_linear_322_670)"/>
<path d="M121 123H136C137.657 123 139 124.343 139 126V134C139 135.657 137.657 137 136 137H121V123Z" fill="url(#paint11_linear_322_670)"/>
<path d="M14 75.5H139" stroke="#625A8D" stroke-linecap="round"/>
<defs>
<linearGradient id="paint0_linear_322_670" x1="76" y1="18" x2="76" y2="151" gradientUnits="userSpaceOnUse">
<stop stop-color="#9B8CE6"/>
<stop offset="1" stop-color="#7B61FF"/>
</linearGradient>
<linearGradient id="paint1_linear_322_670" x1="36" y1="0" x2="36" y2="30" gradientUnits="userSpaceOnUse">
<stop stop-color="#7B61FF"/>
<stop offset="0.0001" stop-color="#9B8CE6"/>
</linearGradient>
<linearGradient id="paint2_linear_322_670" x1="14" y1="40" x2="116" y2="40" gradientUnits="userSpaceOnUse">
<stop stop-color="#009989"/>
<stop offset="1" stop-color="#95F9EF"/>
</linearGradient>
<linearGradient id="paint3_linear_322_670" x1="14" y1="92" x2="116" y2="92" gradientUnits="userSpaceOnUse">
<stop stop-color="#1F2937"/>
<stop offset="1" stop-color="#647EA2"/>
</linearGradient>
<linearGradient id="paint4_linear_322_670" x1="14" y1="59" x2="116" y2="59" gradientUnits="userSpaceOnUse">
<stop stop-color="#F85931"/>
<stop offset="1" stop-color="#EEBBAE"/>
</linearGradient>
<linearGradient id="paint5_linear_322_670" x1="14" y1="111" x2="116" y2="111" gradientUnits="userSpaceOnUse">
<stop stop-color="#500498"/>
<stop offset="1" stop-color="#C282FF"/>
</linearGradient>
<linearGradient id="paint6_linear_322_670" x1="14" y1="130" x2="116" y2="130" gradientUnits="userSpaceOnUse">
<stop offset="0.112" stop-color="#0078C2"/>
<stop offset="1" stop-color="#81CDFC"/>
</linearGradient>
<linearGradient id="paint7_linear_322_670" x1="121" y1="40" x2="139" y2="40" gradientUnits="userSpaceOnUse">
<stop stop-color="#95F9EF"/>
<stop offset="1" stop-color="#009989"/>
</linearGradient>
<linearGradient id="paint8_linear_322_670" x1="121" y1="92" x2="139" y2="92" gradientUnits="userSpaceOnUse">
<stop stop-color="#647EA2"/>
<stop offset="1" stop-color="#1F2937"/>
</linearGradient>
<linearGradient id="paint9_linear_322_670" x1="121" y1="59" x2="139" y2="59" gradientUnits="userSpaceOnUse">
<stop stop-color="#EEBBAE"/>
<stop offset="1" stop-color="#F85931"/>
</linearGradient>
<linearGradient id="paint10_linear_322_670" x1="121" y1="111" x2="139" y2="111" gradientUnits="userSpaceOnUse">
<stop stop-color="#C282FF"/>
<stop offset="1" stop-color="#500498"/>
</linearGradient>
<linearGradient id="paint11_linear_322_670" x1="121" y1="130" x2="139" y2="130" gradientUnits="userSpaceOnUse">
<stop stop-color="#81CDFC"/>
<stop offset="1" stop-color="#0078C2"/>
</linearGradient>
</defs>
</svg>
