<svg width="478" height="475" viewBox="0 0 478 475" fill="none" xmlns="http://www.w3.org/2000/svg">
<g opacity="0.14">
<rect y="56.6052" width="478" height="418.25" rx="13" fill="url(#paint0_linear_283_1590)"/>
<path d="M111.478 3C112.248 1.66667 114.172 1.66667 114.942 3L152.329 67.7566C153.099 69.0899 152.137 70.7566 150.597 70.7566H75.8229C74.2833 70.7566 73.321 69.0899 74.0908 67.7566L111.478 3Z" fill="url(#paint1_linear_283_1590)"/>
<path d="M44.0264 106.776C44.0264 105.12 45.3695 103.776 47.0264 103.776H364.79V147.803H47.0264C45.3695 147.803 44.0264 146.46 44.0264 144.803V106.776Z" fill="url(#paint2_linear_283_1590)" fill-opacity="0.73"/>
<path d="M44.0264 270.303C44.0264 268.646 45.3695 267.303 47.0264 267.303H364.79V311.329H47.0264C45.3695 311.329 44.0264 309.986 44.0264 308.329V270.303Z" fill="url(#paint3_linear_283_1590)" fill-opacity="0.73"/>
<path d="M44.0264 166.526C44.0264 164.87 45.3695 163.526 47.0264 163.526H364.79V207.553H47.0264C45.3695 207.553 44.0264 206.21 44.0264 204.553V166.526Z" fill="url(#paint4_linear_283_1590)" fill-opacity="0.73"/>
<path d="M44.0264 330.053C44.0264 328.396 45.3695 327.053 47.0264 327.053H364.79V371.079H47.0264C45.3695 371.079 44.0264 369.736 44.0264 368.079V330.053Z" fill="url(#paint5_linear_283_1590)" fill-opacity="0.73"/>
<path d="M44.0264 389.803C44.0264 388.146 45.3695 386.803 47.0264 386.803H364.79V430.829H47.0264C45.3695 430.829 44.0264 429.486 44.0264 427.829V389.803Z" fill="url(#paint6_linear_283_1590)" fill-opacity="0.73"/>
<path d="M380.513 103.776H434.118C435.775 103.776 437.118 105.12 437.118 106.776V144.803C437.118 146.46 435.775 147.803 434.118 147.803H380.513V103.776Z" fill="url(#paint7_linear_283_1590)"/>
<path d="M380.513 267.303H434.118C435.775 267.303 437.118 268.646 437.118 270.303V308.329C437.118 309.986 435.775 311.329 434.118 311.329H380.513V267.303Z" fill="url(#paint8_linear_283_1590)"/>
<path d="M380.513 163.526H434.118C435.775 163.526 437.118 164.87 437.118 166.526V204.553C437.118 206.21 435.775 207.553 434.118 207.553H380.513V163.526Z" fill="url(#paint9_linear_283_1590)"/>
<path d="M380.513 327.053H434.118C435.775 327.053 437.118 328.396 437.118 330.053V368.079C437.118 369.736 435.775 371.079 434.118 371.079H380.513V327.053Z" fill="url(#paint10_linear_283_1590)"/>
<path d="M380.513 386.803H434.118C435.775 386.803 437.118 388.146 437.118 389.803V427.829C437.118 429.486 435.775 430.829 434.118 430.829H380.513V386.803Z" fill="url(#paint11_linear_283_1590)"/>
<path d="M44.0264 237.428H437.118" stroke="#625A8D" stroke-linecap="round"/>
</g>
<mask id="mask0_283_1590" style="mask-type:luminance" maskUnits="userSpaceOnUse" x="43" y="196" width="61" height="65">
<path d="M63.9551 196.865L103.972 215.511L83.141 260.218L43.1238 241.572L63.9551 196.865Z" fill="white"/>
</mask>
<g mask="url(#mask0_283_1590)">
<path d="M103.966 215.509L63.9609 196.868L48.8522 238.514L63.1322 250.895L81.7977 253.865L103.966 215.509Z" fill="#0277BD"/>
</g>
<path d="M82.3193 209.719L64.8321 247.249L79.7644 249.625L98.4391 217.23L82.3193 209.719Z" fill="#039BE5"/>
<path d="M90.2854 220.59L79.5781 215.601L77.3854 220.307L83.1509 222.994L80.6051 227.535L75.1926 225.013L72.9998 229.719L78.177 232.132L75.3571 237.261L69.7655 236.66L67.4631 241.602L78.1837 242.874L85.3116 229.728L90.2854 220.59Z" fill="white"/>
<path d="M79.5779 215.601L77.3852 220.307L66.9132 215.428L68.7529 210.557L79.5779 215.601ZM69.7799 222.491L67.8224 227.307L72.9996 229.719L75.1924 225.013L69.7799 222.491ZM66.9614 229.769L62.2549 227.576L59.5929 234.212L67.4629 241.602L69.7653 236.66L65.7086 232.766L66.9614 229.769Z" fill="#EEEEEE"/>
<mask id="mask1_283_1590" style="mask-type:luminance" maskUnits="userSpaceOnUse" x="156" y="236" width="54" height="54">
<path d="M156.715 236.715H209.299V289.299H156.715V236.715Z" fill="white"/>
</mask>
<g mask="url(#mask1_283_1590)">
<path d="M156.715 236.715H209.299V289.299H156.715V236.715Z" fill="#FFD600"/>
<path d="M191.097 276.075C192.107 277.717 193.206 279.29 195.532 279.29C197.487 279.29 198.512 278.319 198.512 276.975C198.512 275.367 197.452 274.796 195.302 273.859L194.123 273.357C190.721 271.914 188.459 270.105 188.459 266.286C188.459 262.765 191.153 260.087 195.364 260.087C198.363 260.087 200.518 261.125 202.072 263.845L198.4 266.192C197.592 264.749 196.719 264.181 195.364 264.181C193.983 264.181 193.108 265.053 193.108 266.192C193.108 267.6 193.984 268.17 196.007 269.042L197.186 269.545C201.195 271.252 203.457 272.996 203.457 276.916C203.457 281.141 200.12 283.456 195.642 283.456C191.261 283.456 188.774 281.258 187.389 278.536L191.097 276.075ZM174.173 276.195C174.912 277.518 176.036 278.536 177.651 278.536C179.196 278.536 180.086 277.926 180.086 275.552V260.085H184.954V276.3C184.954 281.218 182.102 283.456 177.936 283.456C174.172 283.456 171.455 280.906 170.348 278.536L174.173 276.195Z" fill="#000001"/>
</g>
<mask id="mask2_283_1590" style="mask-type:luminance" maskUnits="userSpaceOnUse" x="118" y="116" width="56" height="48">
<path d="M118.159 116.001H173.833V163.996H118.159V116.001Z" fill="white"/>
</mask>
<g mask="url(#mask2_283_1590)">
<path d="M162.684 116.001H173.811L145.993 163.996L118.175 116.001H139.456L145.993 127.131L152.391 116.001H162.684Z" fill="#41B883"/>
<path d="M118.175 116.001L145.993 163.996L173.811 116.001H162.684L145.993 144.798L129.163 116.001H118.175Z" fill="#41B883"/>
</g>
<mask id="mask3_283_1590" style="mask-type:luminance" maskUnits="userSpaceOnUse" x="129" y="116" width="34" height="29">
<path d="M129.142 116.001H162.704V144.949H129.142V116.001Z" fill="white"/>
</mask>
<g mask="url(#mask3_283_1590)">
<path d="M129.163 116.001L145.993 144.937L162.684 116.001H152.391L145.993 127.131L139.456 116.001H129.163Z" fill="#35495E"/>
</g>
<mask id="mask4_283_1590" style="mask-type:luminance" maskUnits="userSpaceOnUse" x="215" y="159" width="48" height="54">
<path d="M215.431 159.231H262.583V212.767H215.431V159.231Z" fill="white"/>
</mask>
<g mask="url(#mask4_283_1590)">
<path d="M219.711 207.398L215.417 159.256H262.596L258.299 207.392L238.976 212.744L219.711 207.398Z" fill="#E44D26"/>
</g>
<path d="M254.619 204.327L258.292 163.193H239.007V208.654L254.619 204.327Z" fill="#F16529"/>
<path d="M238.986 169.097H224.195L225.789 186.952H239.006V181.049H231.191L230.651 175.003H239.006V169.097H238.986ZM239.006 196.363L238.981 196.37L232.403 194.595L231.985 189.886H226.053L226.881 199.157L238.98 202.5L239.006 202.491V196.363Z" fill="#EBEBEB"/>
<path d="M238.987 186.952H246.26L245.591 194.608L239.004 196.385V202.528L251.113 199.173L252.734 181.045H239.007L238.987 186.952ZM253.641 170.682L253.781 169.097H238.983V175.001H253.249L253.367 173.674L253.641 170.682Z" fill="white"/>
<defs>
<linearGradient id="paint0_linear_283_1590" x1="239" y1="56.6052" x2="239" y2="474.855" gradientUnits="userSpaceOnUse">
<stop stop-color="#9B8CE6"/>
<stop offset="1" stop-color="#7B61FF"/>
</linearGradient>
<linearGradient id="paint1_linear_283_1590" x1="113.21" y1="0" x2="113.21" y2="94.3421" gradientUnits="userSpaceOnUse">
<stop stop-color="#7B61FF"/>
<stop offset="0.0001" stop-color="#9B8CE6"/>
</linearGradient>
<linearGradient id="paint2_linear_283_1590" x1="44.0264" y1="125.79" x2="364.79" y2="125.79" gradientUnits="userSpaceOnUse">
<stop stop-color="#009989"/>
<stop offset="1" stop-color="#95F9EF"/>
</linearGradient>
<linearGradient id="paint3_linear_283_1590" x1="44.0264" y1="289.316" x2="364.79" y2="289.316" gradientUnits="userSpaceOnUse">
<stop stop-color="#1F2937"/>
<stop offset="1" stop-color="#647EA2"/>
</linearGradient>
<linearGradient id="paint4_linear_283_1590" x1="44.0264" y1="185.54" x2="364.79" y2="185.54" gradientUnits="userSpaceOnUse">
<stop stop-color="#F85931"/>
<stop offset="1" stop-color="#EEBBAE"/>
</linearGradient>
<linearGradient id="paint5_linear_283_1590" x1="44.0264" y1="349.066" x2="364.79" y2="349.066" gradientUnits="userSpaceOnUse">
<stop stop-color="#500498"/>
<stop offset="1" stop-color="#C282FF"/>
</linearGradient>
<linearGradient id="paint6_linear_283_1590" x1="44.0264" y1="408.816" x2="364.79" y2="408.816" gradientUnits="userSpaceOnUse">
<stop offset="0.112" stop-color="#0078C2"/>
<stop offset="1" stop-color="#81CDFC"/>
</linearGradient>
<linearGradient id="paint7_linear_283_1590" x1="380.513" y1="125.79" x2="437.118" y2="125.79" gradientUnits="userSpaceOnUse">
<stop stop-color="#95F9EF"/>
<stop offset="1" stop-color="#009989"/>
</linearGradient>
<linearGradient id="paint8_linear_283_1590" x1="380.513" y1="289.316" x2="437.118" y2="289.316" gradientUnits="userSpaceOnUse">
<stop stop-color="#647EA2"/>
<stop offset="1" stop-color="#1F2937"/>
</linearGradient>
<linearGradient id="paint9_linear_283_1590" x1="380.513" y1="185.54" x2="437.118" y2="185.54" gradientUnits="userSpaceOnUse">
<stop stop-color="#EEBBAE"/>
<stop offset="1" stop-color="#F85931"/>
</linearGradient>
<linearGradient id="paint10_linear_283_1590" x1="380.513" y1="349.066" x2="437.118" y2="349.066" gradientUnits="userSpaceOnUse">
<stop stop-color="#C282FF"/>
<stop offset="1" stop-color="#500498"/>
</linearGradient>
<linearGradient id="paint11_linear_283_1590" x1="380.513" y1="408.816" x2="437.118" y2="408.816" gradientUnits="userSpaceOnUse">
<stop stop-color="#81CDFC"/>
<stop offset="1" stop-color="#0078C2"/>
</linearGradient>
</defs>
</svg>
