<svg width="1642" height="447" viewBox="0 0 1642 447" fill="none" xmlns="http://www.w3.org/2000/svg">
<circle cx="223.5" cy="223.5" r="223.5" fill="#5E6AD2"/>
<path d="M114.064 295H58.6577V151H113.501C128.314 151 141.111 153.883 151.892 159.648C162.72 165.367 171.064 173.617 176.923 184.398C182.83 195.133 185.783 208 185.783 223C185.783 238 182.853 250.891 176.994 261.672C171.134 272.406 162.837 280.656 152.103 286.422C141.369 292.141 128.689 295 114.064 295ZM97.7515 261.812H112.658C119.783 261.812 125.853 260.664 130.869 258.367C135.931 256.07 139.775 252.109 142.4 246.484C145.072 240.859 146.408 233.031 146.408 223C146.408 212.969 145.048 205.141 142.33 199.516C139.658 193.891 135.72 189.93 130.517 187.633C125.361 185.336 119.033 184.187 111.533 184.187H97.7515V261.812ZM255.984 296.969C244.266 296.969 234.234 294.648 225.891 290.008C217.547 285.32 211.148 278.805 206.695 270.461C202.242 262.07 200.016 252.344 200.016 241.281C200.016 230.219 202.242 220.516 206.695 212.172C211.148 203.781 217.547 197.266 225.891 192.625C234.234 187.937 244.266 185.594 255.984 185.594C267.703 185.594 277.734 187.937 286.078 192.625C294.422 197.266 300.82 203.781 305.273 212.172C309.727 220.516 311.953 230.219 311.953 241.281C311.953 252.344 309.727 262.07 305.273 270.461C300.82 278.805 294.422 285.32 286.078 290.008C277.734 294.648 267.703 296.969 255.984 296.969ZM256.266 268.281C259.547 268.281 262.383 267.18 264.773 264.977C267.164 262.773 269.016 259.633 270.328 255.555C271.641 251.477 272.297 246.625 272.297 241C272.297 235.328 271.641 230.477 270.328 226.445C269.016 222.367 267.164 219.227 264.773 217.023C262.383 214.82 259.547 213.719 256.266 213.719C252.797 213.719 249.82 214.82 247.336 217.023C244.852 219.227 242.953 222.367 241.641 226.445C240.328 230.477 239.672 235.328 239.672 241C239.672 246.625 240.328 251.477 241.641 255.555C242.953 259.633 244.852 262.773 247.336 264.977C249.82 267.18 252.797 268.281 256.266 268.281ZM391.629 187V215.125H320.473V187H391.629ZM334.254 161.125H373.067V260.266C373.067 261.766 373.325 263.031 373.84 264.062C374.356 265.047 375.153 265.797 376.231 266.312C377.309 266.781 378.692 267.016 380.379 267.016C381.551 267.016 382.911 266.875 384.458 266.594C386.051 266.312 387.223 266.078 387.973 265.891L393.598 293.172C391.864 293.687 389.379 294.32 386.145 295.07C382.958 295.82 379.161 296.313 374.754 296.547C365.848 297.016 358.372 296.102 352.325 293.805C346.278 291.461 341.731 287.781 338.684 282.766C335.637 277.75 334.161 271.469 334.254 263.922V161.125Z" fill="white"/>
<path d="M625.82 205H586.164C585.883 201.719 585.133 198.742 583.914 196.07C582.742 193.398 581.102 191.102 578.992 189.18C576.93 187.211 574.422 185.711 571.469 184.68C568.516 183.602 565.164 183.062 561.414 183.062C554.852 183.062 549.297 184.656 544.75 187.844C540.25 191.031 536.828 195.602 534.484 201.555C532.188 207.508 531.039 214.656 531.039 223C531.039 231.812 532.211 239.195 534.555 245.148C536.945 251.055 540.391 255.508 544.891 258.508C549.391 261.461 554.805 262.937 561.133 262.937C564.742 262.937 567.977 262.492 570.836 261.602C573.695 260.664 576.18 259.328 578.289 257.594C580.398 255.859 582.109 253.773 583.422 251.336C584.781 248.852 585.695 246.062 586.164 242.969L625.82 243.25C625.352 249.344 623.641 255.555 620.688 261.883C617.734 268.164 613.539 273.977 608.102 279.32C602.711 284.617 596.031 288.883 588.063 292.117C580.094 295.352 570.836 296.969 560.289 296.969C547.07 296.969 535.211 294.133 524.711 288.461C514.258 282.789 505.984 274.445 499.891 263.43C493.844 252.414 490.82 238.937 490.82 223C490.82 206.969 493.914 193.469 500.102 182.5C506.289 171.484 514.633 163.164 525.133 157.539C535.633 151.867 547.352 149.031 560.289 149.031C569.383 149.031 577.75 150.273 585.391 152.758C593.031 155.242 599.734 158.875 605.5 163.656C611.266 168.391 615.906 174.227 619.422 181.164C622.938 188.102 625.07 196.047 625.82 205ZM695.67 296.969C683.952 296.969 673.92 294.648 665.577 290.008C657.233 285.32 650.835 278.805 646.381 270.461C641.928 262.07 639.702 252.344 639.702 241.281C639.702 230.219 641.928 220.516 646.381 212.172C650.835 203.781 657.233 197.266 665.577 192.625C673.92 187.937 683.952 185.594 695.67 185.594C707.389 185.594 717.42 187.937 725.764 192.625C734.108 197.266 740.506 203.781 744.96 212.172C749.413 220.516 751.639 230.219 751.639 241.281C751.639 252.344 749.413 262.07 744.96 270.461C740.506 278.805 734.108 285.32 725.764 290.008C717.42 294.648 707.389 296.969 695.67 296.969ZM695.952 268.281C699.233 268.281 702.069 267.18 704.46 264.977C706.85 262.773 708.702 259.633 710.014 255.555C711.327 251.477 711.983 246.625 711.983 241C711.983 235.328 711.327 230.477 710.014 226.445C708.702 222.367 706.85 219.227 704.46 217.023C702.069 214.82 699.233 213.719 695.952 213.719C692.483 213.719 689.506 214.82 687.022 217.023C684.538 219.227 682.639 222.367 681.327 226.445C680.014 230.477 679.358 235.328 679.358 241C679.358 246.625 680.014 251.477 681.327 255.555C682.639 259.633 684.538 262.773 687.022 264.977C689.506 267.18 692.483 268.281 695.952 268.281ZM766.909 295V187H803.753V207.531H804.878C807.128 200.781 810.972 195.437 816.409 191.5C821.847 187.562 828.315 185.594 835.815 185.594C843.409 185.594 849.948 187.609 855.433 191.641C860.917 195.625 864.222 200.922 865.347 207.531H866.472C868.3 200.922 872.19 195.625 878.144 191.641C884.097 187.609 891.081 185.594 899.097 185.594C909.456 185.594 917.847 188.922 924.269 195.578C930.737 202.234 933.972 211.094 933.972 222.156V295H895.159V232C895.159 227.266 893.964 223.562 891.573 220.891C889.183 218.172 885.972 216.812 881.94 216.812C877.956 216.812 874.792 218.172 872.448 220.891C870.151 223.562 869.003 227.266 869.003 232V295H831.878V232C831.878 227.266 830.683 223.562 828.292 220.891C825.901 218.172 822.69 216.812 818.659 216.812C815.987 216.812 813.69 217.422 811.769 218.641C809.847 219.859 808.347 221.617 807.269 223.914C806.237 226.164 805.722 228.859 805.722 232V295H766.909ZM952.634 295V187H989.478V207.531H990.603C992.853 200.781 996.697 195.437 1002.13 191.5C1007.57 187.562 1014.04 185.594 1021.54 185.594C1029.13 185.594 1035.67 187.609 1041.16 191.641C1046.64 195.625 1049.95 200.922 1051.07 207.531H1052.2C1054.02 200.922 1057.92 195.625 1063.87 191.641C1069.82 187.609 1076.81 185.594 1084.82 185.594C1095.18 185.594 1103.57 188.922 1109.99 195.578C1116.46 202.234 1119.7 211.094 1119.7 222.156V295H1080.88V232C1080.88 227.266 1079.69 223.562 1077.3 220.891C1074.91 218.172 1071.7 216.812 1067.67 216.812C1063.68 216.812 1060.52 218.172 1058.17 220.891C1055.88 223.562 1054.73 227.266 1054.73 232V295H1017.6V232C1017.6 227.266 1016.41 223.562 1014.02 220.891C1011.63 218.172 1008.42 216.812 1004.38 216.812C1001.71 216.812 999.416 217.422 997.494 218.641C995.572 219.859 994.072 221.617 992.994 223.914C991.962 226.164 991.447 228.859 991.447 232V295H952.634ZM1208.39 247.75V187H1247.2V295H1210.36V274.469H1209.23C1206.89 281.359 1202.79 286.75 1196.93 290.641C1191.07 294.484 1184.11 296.406 1176.05 296.406C1168.5 296.406 1161.89 294.672 1156.22 291.203C1150.59 287.734 1146.21 282.953 1143.07 276.859C1139.98 270.766 1138.41 263.781 1138.36 255.906V187H1177.17V247.75C1177.22 253.094 1178.58 257.289 1181.25 260.336C1183.97 263.383 1187.77 264.906 1192.64 264.906C1195.88 264.906 1198.66 264.227 1201.01 262.867C1203.4 261.461 1205.23 259.492 1206.49 256.961C1207.8 254.383 1208.44 251.312 1208.39 247.75ZM1305.28 234.25V295H1266.46V187H1303.31V207.531H1304.43C1306.78 200.687 1310.9 195.32 1316.81 191.43C1322.76 187.539 1329.7 185.594 1337.62 185.594C1345.26 185.594 1351.89 187.352 1357.52 190.867C1363.19 194.336 1367.57 199.117 1370.67 205.211C1373.81 211.305 1375.35 218.266 1375.31 226.094V295H1336.49V234.25C1336.54 228.906 1335.18 224.711 1332.42 221.664C1329.7 218.617 1325.9 217.094 1321.03 217.094C1317.84 217.094 1315.05 217.797 1312.66 219.203C1310.31 220.562 1308.51 222.531 1307.24 225.109C1305.98 227.641 1305.32 230.687 1305.28 234.25ZM1393.99 295V187H1432.8V295H1393.99ZM1413.39 175.75C1408.14 175.75 1403.64 174.016 1399.89 170.547C1396.14 167.078 1394.27 162.906 1394.27 158.031C1394.27 153.156 1396.14 148.984 1399.89 145.516C1403.64 142.047 1408.14 140.312 1413.39 140.312C1418.69 140.312 1423.19 142.047 1426.89 145.516C1430.64 148.984 1432.52 153.156 1432.52 158.031C1432.52 162.906 1430.64 167.078 1426.89 170.547C1423.19 174.016 1418.69 175.75 1413.39 175.75ZM1516.5 187V215.125H1445.35V187H1516.5ZM1459.13 161.125H1497.94V260.266C1497.94 261.766 1498.2 263.031 1498.71 264.062C1499.23 265.047 1500.02 265.797 1501.1 266.312C1502.18 266.781 1503.56 267.016 1505.25 267.016C1506.42 267.016 1507.78 266.875 1509.33 266.594C1510.92 266.312 1512.1 266.078 1512.85 265.891L1518.47 293.172C1516.74 293.687 1514.25 294.32 1511.02 295.07C1507.83 295.82 1504.03 296.313 1499.63 296.547C1490.72 297.016 1483.24 296.102 1477.2 293.805C1471.15 291.461 1466.6 287.781 1463.56 282.766C1460.51 277.75 1459.03 271.469 1459.13 263.922V161.125ZM1555.48 335.5C1551.03 335.5 1546.79 335.148 1542.76 334.445C1538.73 333.789 1535.19 332.875 1532.14 331.703L1540.58 304.141C1543.77 305.266 1546.67 305.992 1549.3 306.32C1551.97 306.648 1554.24 306.461 1556.12 305.758C1558.04 305.055 1559.42 303.719 1560.27 301.75L1561.11 299.781L1523.14 187H1563.64L1581.08 261.812H1582.2L1599.92 187H1640.7L1601.33 304C1599.36 309.953 1596.5 315.297 1592.75 320.031C1589.05 324.813 1584.17 328.586 1578.13 331.352C1572.08 334.117 1564.53 335.5 1555.48 335.5Z" fill="white"/>
</svg>
