<svg width="447" height="447" viewBox="0 0 447 447" fill="none" xmlns="http://www.w3.org/2000/svg">
<circle cx="223.5" cy="223.5" r="223.5" fill="#5E6AD2"/>
<path d="M114.064 295H58.6577V151H113.501C128.314 151 141.111 153.883 151.892 159.648C162.72 165.367 171.064 173.617 176.923 184.398C182.83 195.133 185.783 208 185.783 223C185.783 238 182.853 250.891 176.994 261.672C171.134 272.406 162.837 280.656 152.103 286.422C141.369 292.141 128.689 295 114.064 295ZM97.7515 261.812H112.658C119.783 261.812 125.853 260.664 130.869 258.367C135.931 256.07 139.775 252.109 142.4 246.484C145.072 240.859 146.408 233.031 146.408 223C146.408 212.969 145.048 205.141 142.33 199.516C139.658 193.891 135.72 189.93 130.517 187.633C125.361 185.336 119.033 184.187 111.533 184.187H97.7515V261.812ZM255.984 296.969C244.266 296.969 234.234 294.648 225.891 290.008C217.547 285.32 211.148 278.805 206.695 270.461C202.242 262.07 200.016 252.344 200.016 241.281C200.016 230.219 202.242 220.516 206.695 212.172C211.148 203.781 217.547 197.266 225.891 192.625C234.234 187.937 244.266 185.594 255.984 185.594C267.703 185.594 277.734 187.937 286.078 192.625C294.422 197.266 300.82 203.781 305.273 212.172C309.727 220.516 311.953 230.219 311.953 241.281C311.953 252.344 309.727 262.07 305.273 270.461C300.82 278.805 294.422 285.32 286.078 290.008C277.734 294.648 267.703 296.969 255.984 296.969ZM256.266 268.281C259.547 268.281 262.383 267.18 264.773 264.977C267.164 262.773 269.016 259.633 270.328 255.555C271.641 251.477 272.297 246.625 272.297 241C272.297 235.328 271.641 230.477 270.328 226.445C269.016 222.367 267.164 219.227 264.773 217.023C262.383 214.82 259.547 213.719 256.266 213.719C252.797 213.719 249.82 214.82 247.336 217.023C244.852 219.227 242.953 222.367 241.641 226.445C240.328 230.477 239.672 235.328 239.672 241C239.672 246.625 240.328 251.477 241.641 255.555C242.953 259.633 244.852 262.773 247.336 264.977C249.82 267.18 252.797 268.281 256.266 268.281ZM391.629 187V215.125H320.473V187H391.629ZM334.254 161.125H373.067V260.266C373.067 261.766 373.325 263.031 373.84 264.062C374.356 265.047 375.153 265.797 376.231 266.312C377.309 266.781 378.692 267.016 380.379 267.016C381.551 267.016 382.911 266.875 384.458 266.594C386.051 266.312 387.223 266.078 387.973 265.891L393.598 293.172C391.864 293.687 389.379 294.32 386.145 295.07C382.958 295.82 379.161 296.313 374.754 296.547C365.848 297.016 358.372 296.102 352.325 293.805C346.278 291.461 341.731 287.781 338.684 282.766C335.637 277.75 334.161 271.469 334.254 263.922V161.125Z" fill="white"/>
</svg>
