<svg width="983" height="447" viewBox="0 0 983 447" fill="none" xmlns="http://www.w3.org/2000/svg">
<circle cx="223.5" cy="223.5" r="223.5" fill="#5E6AD2"/>
<path d="M114.064 295H58.6577V151H113.501C128.314 151 141.111 153.883 151.892 159.648C162.72 165.367 171.064 173.617 176.923 184.398C182.83 195.133 185.783 208 185.783 223C185.783 238 182.853 250.891 176.994 261.672C171.134 272.406 162.837 280.656 152.103 286.422C141.369 292.141 128.689 295 114.064 295ZM97.7515 261.812H112.658C119.783 261.812 125.853 260.664 130.869 258.367C135.931 256.07 139.775 252.109 142.4 246.484C145.072 240.859 146.408 233.031 146.408 223C146.408 212.969 145.048 205.141 142.33 199.516C139.658 193.891 135.72 189.93 130.517 187.633C125.361 185.336 119.033 184.187 111.533 184.187H97.7515V261.812ZM255.984 296.969C244.266 296.969 234.234 294.648 225.891 290.008C217.547 285.32 211.148 278.805 206.695 270.461C202.242 262.07 200.016 252.344 200.016 241.281C200.016 230.219 202.242 220.516 206.695 212.172C211.148 203.781 217.547 197.266 225.891 192.625C234.234 187.937 244.266 185.594 255.984 185.594C267.703 185.594 277.734 187.937 286.078 192.625C294.422 197.266 300.82 203.781 305.273 212.172C309.727 220.516 311.953 230.219 311.953 241.281C311.953 252.344 309.727 262.07 305.273 270.461C300.82 278.805 294.422 285.32 286.078 290.008C277.734 294.648 267.703 296.969 255.984 296.969ZM256.266 268.281C259.547 268.281 262.383 267.18 264.773 264.977C267.164 262.773 269.016 259.633 270.328 255.555C271.641 251.477 272.297 246.625 272.297 241C272.297 235.328 271.641 230.477 270.328 226.445C269.016 222.367 267.164 219.227 264.773 217.023C262.383 214.82 259.547 213.719 256.266 213.719C252.797 213.719 249.82 214.82 247.336 217.023C244.852 219.227 242.953 222.367 241.641 226.445C240.328 230.477 239.672 235.328 239.672 241C239.672 246.625 240.328 251.477 241.641 255.555C242.953 259.633 244.852 262.773 247.336 264.977C249.82 267.18 252.797 268.281 256.266 268.281ZM391.629 187V215.125H320.473V187H391.629ZM334.254 161.125H373.067V260.266C373.067 261.766 373.325 263.031 373.84 264.062C374.356 265.047 375.153 265.797 376.231 266.312C377.309 266.781 378.692 267.016 380.379 267.016C381.551 267.016 382.911 266.875 384.458 266.594C386.051 266.312 387.223 266.078 387.973 265.891L393.598 293.172C391.864 293.687 389.379 294.32 386.145 295.07C382.958 295.82 379.161 296.313 374.754 296.547C365.848 297.016 358.372 296.102 352.325 293.805C346.278 291.461 341.731 287.781 338.684 282.766C335.637 277.75 334.161 271.469 334.254 263.922V161.125Z" fill="white"/>
<path d="M603.937 205H564.281C563.999 201.719 563.249 198.742 562.031 196.07C560.859 193.398 559.218 191.102 557.109 189.18C555.046 187.211 552.538 185.711 549.585 184.68C546.632 183.602 543.281 183.062 539.531 183.062C532.968 183.062 527.413 184.656 522.866 187.844C518.366 191.031 514.945 195.602 512.601 201.555C510.304 207.508 509.156 214.656 509.156 223C509.156 231.812 510.327 239.195 512.671 245.148C515.062 251.055 518.507 255.508 523.007 258.508C527.507 261.461 532.921 262.937 539.249 262.937C542.859 262.937 546.093 262.492 548.952 261.602C551.812 260.664 554.296 259.328 556.406 257.594C558.515 255.859 560.226 253.773 561.538 251.336C562.898 248.852 563.812 246.062 564.281 242.969L603.937 243.25C603.468 249.344 601.757 255.555 598.804 261.883C595.851 268.164 591.656 273.977 586.218 279.32C580.827 284.617 574.148 288.883 566.179 292.117C558.21 295.352 548.952 296.969 538.406 296.969C525.187 296.969 513.327 294.133 502.827 288.461C492.374 282.789 484.101 274.445 478.007 263.43C471.96 252.414 468.937 238.937 468.937 223C468.937 206.969 472.031 193.469 478.218 182.5C484.406 171.484 492.749 163.164 503.249 157.539C513.749 151.867 525.468 149.031 538.406 149.031C547.499 149.031 555.866 150.273 563.507 152.758C571.148 155.242 577.851 158.875 583.616 163.656C589.382 168.391 594.023 174.227 597.538 181.164C601.054 188.102 603.187 196.047 603.937 205ZM673.787 296.969C662.068 296.969 652.037 294.648 643.693 290.008C635.349 285.32 628.951 278.805 624.498 270.461C620.045 262.07 617.818 252.344 617.818 241.281C617.818 230.219 620.045 220.516 624.498 212.172C628.951 203.781 635.349 197.266 643.693 192.625C652.037 187.937 662.068 185.594 673.787 185.594C685.506 185.594 695.537 187.937 703.881 192.625C712.224 197.266 718.623 203.781 723.076 212.172C727.529 220.516 729.756 230.219 729.756 241.281C729.756 252.344 727.529 262.07 723.076 270.461C718.623 278.805 712.224 285.32 703.881 290.008C695.537 294.648 685.506 296.969 673.787 296.969ZM674.068 268.281C677.349 268.281 680.185 267.18 682.576 264.977C684.967 262.773 686.818 259.633 688.131 255.555C689.443 251.477 690.099 246.625 690.099 241C690.099 235.328 689.443 230.477 688.131 226.445C686.818 222.367 684.967 219.227 682.576 217.023C680.185 214.82 677.349 213.719 674.068 213.719C670.599 213.719 667.623 214.82 665.138 217.023C662.654 219.227 660.756 222.367 659.443 226.445C658.131 230.477 657.474 235.328 657.474 241C657.474 246.625 658.131 251.477 659.443 255.555C660.756 259.633 662.654 262.773 665.138 264.977C667.623 267.18 670.599 268.281 674.068 268.281ZM784.119 296.406C776.432 296.406 769.354 294.391 762.885 290.359C756.463 286.328 751.307 280.211 747.416 272.008C743.573 263.805 741.651 253.469 741.651 241C741.651 227.969 743.666 217.375 747.698 209.219C751.776 201.062 757.026 195.086 763.448 191.289C769.916 187.492 776.713 185.594 783.838 185.594C789.182 185.594 793.869 186.531 797.901 188.406C801.932 190.234 805.307 192.695 808.026 195.789C810.744 198.836 812.807 202.187 814.213 205.844H814.776V151H853.588V295H815.057V277.281H814.213C812.713 280.937 810.557 284.219 807.744 287.125C804.979 289.984 801.604 292.258 797.619 293.945C793.682 295.586 789.182 296.406 784.119 296.406ZM798.463 266.594C802.026 266.594 805.073 265.563 807.604 263.5C810.182 261.391 812.151 258.437 813.51 254.641C814.916 250.797 815.619 246.25 815.619 241C815.619 235.656 814.916 231.086 813.51 227.289C812.151 223.445 810.182 220.516 807.604 218.5C805.073 216.437 802.026 215.406 798.463 215.406C794.901 215.406 791.854 216.437 789.323 218.5C786.838 220.516 784.916 223.445 783.557 227.289C782.244 231.086 781.588 235.656 781.588 241C781.588 246.344 782.244 250.937 783.557 254.781C784.916 258.578 786.838 261.508 789.323 263.57C791.854 265.586 794.901 266.594 798.463 266.594ZM923.913 296.969C912.382 296.969 902.444 294.766 894.1 290.359C885.803 285.906 879.405 279.531 874.905 271.234C870.452 262.891 868.225 252.906 868.225 241.281C868.225 230.125 870.475 220.375 874.975 212.031C879.475 203.687 885.827 197.195 894.03 192.555C902.233 187.914 911.913 185.594 923.069 185.594C931.225 185.594 938.608 186.859 945.218 189.391C951.827 191.922 957.475 195.602 962.163 200.43C966.85 205.211 970.46 211.023 972.991 217.867C975.522 224.711 976.788 232.422 976.788 241V250H880.319V228.625H941.069C941.022 225.531 940.225 222.812 938.678 220.469C937.178 218.078 935.139 216.227 932.561 214.914C930.03 213.555 927.147 212.875 923.913 212.875C920.772 212.875 917.889 213.555 915.264 214.914C912.639 216.227 910.53 218.055 908.936 220.398C907.389 222.742 906.569 225.484 906.475 228.625V251.688C906.475 255.156 907.202 258.25 908.655 260.969C910.108 263.688 912.194 265.82 914.913 267.367C917.632 268.914 920.913 269.688 924.757 269.688C927.428 269.688 929.866 269.312 932.069 268.562C934.319 267.812 936.241 266.734 937.835 265.328C939.428 263.875 940.6 262.141 941.35 260.125H976.788C975.569 267.625 972.686 274.141 968.139 279.672C963.593 285.156 957.569 289.422 950.069 292.469C942.616 295.469 933.897 296.969 923.913 296.969Z" fill="white"/>
</svg>
